<svg width="105" height="32" viewBox="0 0 105 32" fill="none" xmlns="http://www.w3.org/2000/svg">
<path d="M47.7908 10.5286L47.4431 12.8347H37.7151L39.5898 0.406738H49.0846L48.737 2.71277H42.1357L41.7286 5.41048H47.5619L47.2187 7.6461H41.3876L40.9475 10.522L47.7908 10.5286Z" fill="#5D6B6D"/>
<path d="M57.741 10.6981L57.4308 12.8281H48.8074L49.0692 11.1602L54.8541 5.41052H50.0528L50.3741 3.28052H58.7004L58.4496 4.95063L52.6625 10.6981H57.741Z" fill="#5D6B6D"/>
<path d="M70.0611 3.28052L64.1706 13.4134C63.5618 14.5136 62.8973 15.2889 62.177 15.7393C61.4372 16.1938 60.5829 16.4274 59.7148 16.4126C59.2213 16.4174 58.7303 16.3431 58.2603 16.1925C57.8482 16.07 57.4711 15.8513 57.1601 15.5544L58.4803 13.5741C58.674 13.7652 58.9046 13.915 59.1581 14.0141C59.4162 14.1182 59.6918 14.1719 59.97 14.1726C60.3155 14.1828 60.6557 14.0868 60.9448 13.8975C61.2668 13.6511 61.5336 13.3401 61.7282 12.9843L61.7766 12.8941L59.0481 3.27612H61.9372L63.6689 9.75414L67.3744 3.27612L70.0611 3.28052Z" fill="#5D6B6D"/>
<path d="M82.0518 18.3785H81L81.055 18H83.5921L83.5349 18.3785H82.4919L82.0892 21.0366H81.6491L82.0518 18.3785Z" fill="#5D6B6D"/>
<path d="M86.466 21.0366L86.796 18.8251L85.4076 20.6735H85.2051L84.3712 18.8427L84.0411 21.0432H83.6187L84.0763 18.0066H84.4372L85.3966 20.141L86.9831 18.0066H87.333L86.8929 21.0366H86.466Z" fill="#5D6B6D"/>
<path d="M19.6122 12.9998L18.4108 21.0423H9.5805L8.00281 31.5932H26.4159L29.195 12.9998H19.6122Z" fill="#8EBE3F"/>
<path d="M19.6123 12.9997L21.19 2.44873H2.77912L0 21.0422H9.5806L10.7842 12.9997H19.6123Z" fill="#359471"/>
<path d="M18.4109 21.0423L19.6124 12.9998H10.7843L9.58069 21.0423H18.4109Z" fill="#338248"/>
<path d="M33.7654 8.44705L34.9669 0.406738H26.1388L24.9374 8.44705H33.7654Z" fill="#19A6C3"/>
<path d="M35.5163 28L37.3363 18.9H39.5763L38.8763 22.316H41.5923L42.2643 18.9H44.5043L42.6843 28H40.4443L41.2003 24.276H38.4843L37.7563 28H35.5163ZM46.8012 28.168C46.1852 28.168 45.7046 27.944 45.3592 27.496C45.0139 27.048 44.8412 26.4133 44.8412 25.592C44.8412 24.9293 44.9439 24.3087 45.1492 23.73C45.3546 23.1513 45.6299 22.6473 45.9752 22.218C46.3299 21.7793 46.7266 21.4387 47.1652 21.196C47.6132 20.9533 48.0799 20.832 48.5652 20.832C48.8639 20.832 49.1486 20.9113 49.4192 21.07C49.6992 21.2193 49.8999 21.4293 50.0212 21.7H50.0492L50.3572 21H52.1492L50.7492 28H48.9292V27.132H48.9012C48.5932 27.4493 48.2479 27.7013 47.8652 27.888C47.4919 28.0747 47.1372 28.168 46.8012 28.168ZM47.8092 26.348C47.9959 26.348 48.2012 26.2873 48.4252 26.166C48.6586 26.0447 48.8639 25.7973 49.0412 25.424L49.4892 23.184C49.4052 22.9973 49.2886 22.862 49.1392 22.778C48.9992 22.694 48.8639 22.652 48.7332 22.652C48.4626 22.652 48.2059 22.764 47.9632 22.988C47.7299 23.212 47.5386 23.5247 47.3892 23.926C47.2399 24.3273 47.1652 24.7893 47.1652 25.312C47.1652 25.676 47.2212 25.942 47.3332 26.11C47.4546 26.2687 47.6132 26.348 47.8092 26.348ZM52.3679 28L53.7679 21H55.5879V21.896H55.6439C55.9705 21.616 56.3205 21.3687 56.6939 21.154C57.0765 20.9393 57.4919 20.832 57.9399 20.832C58.5185 20.832 58.9385 20.986 59.1999 21.294C59.4612 21.5927 59.5919 22.0453 59.5919 22.652C59.5919 22.9693 59.5545 23.3053 59.4799 23.66L58.6119 28H56.3719L57.1839 23.94C57.2119 23.8093 57.2352 23.6973 57.2539 23.604C57.2819 23.5013 57.2959 23.408 57.2959 23.324C57.2959 22.932 57.0999 22.736 56.7079 22.736C56.5119 22.736 56.3205 22.8013 56.1339 22.932C55.9472 23.0533 55.7279 23.2493 55.4759 23.52L54.6079 28H52.3679ZM62.4692 28.168C61.8532 28.168 61.3725 27.944 61.0272 27.496C60.6819 27.048 60.5092 26.4133 60.5092 25.592C60.5092 24.9293 60.6119 24.3087 60.8172 23.73C61.0225 23.1513 61.2979 22.6473 61.6432 22.218C61.9979 21.7793 62.3945 21.4387 62.8332 21.196C63.2812 20.9533 63.7479 20.832 64.2332 20.832C64.5319 20.832 64.7979 20.902 65.0312 21.042C65.2739 21.182 65.4559 21.3733 65.5772 21.616H65.6052L65.7452 20.3L66.1372 18.256H68.3772L66.4172 28H64.5972V27.132H64.5692C64.2612 27.4493 63.9159 27.7013 63.5332 27.888C63.1599 28.0747 62.8052 28.168 62.4692 28.168ZM63.4772 26.348C63.6639 26.348 63.8645 26.2873 64.0792 26.166C64.3032 26.0447 64.5132 25.7973 64.7092 25.424L65.1572 23.184C65.0732 22.9973 64.9565 22.862 64.8072 22.778C64.6672 22.694 64.5319 22.652 64.4012 22.652C64.1305 22.652 63.8739 22.764 63.6312 22.988C63.3979 23.212 63.2065 23.5247 63.0572 23.926C62.9079 24.3273 62.8332 24.7893 62.8332 25.312C62.8332 25.676 62.8892 25.942 63.0012 26.11C63.1225 26.2687 63.2812 26.348 63.4772 26.348ZM69.8865 28.168C69.3171 28.168 68.9065 28.0327 68.6545 27.762C68.4118 27.482 68.2905 27.104 68.2905 26.628C68.2905 26.488 68.2998 26.3433 68.3185 26.194C68.3371 26.0447 68.3651 25.872 68.4025 25.676L69.8865 18.256H72.1265L70.6145 25.76C70.6051 25.8253 70.5958 25.8767 70.5865 25.914C70.5865 25.9513 70.5865 25.9887 70.5865 26.026C70.5865 26.1567 70.6145 26.25 70.6705 26.306C70.7358 26.3527 70.8011 26.376 70.8665 26.376C70.9131 26.376 70.9505 26.376 70.9785 26.376C71.0158 26.3667 71.0625 26.3573 71.1185 26.348L71.0345 28C70.9131 28.0373 70.7545 28.0747 70.5585 28.112C70.3625 28.1493 70.1385 28.168 69.8865 28.168ZM75.0963 28.168C74.527 28.168 74.023 28.0467 73.5843 27.804C73.1456 27.5613 72.8003 27.216 72.5483 26.768C72.3056 26.3107 72.1843 25.7693 72.1843 25.144C72.1843 24.5 72.301 23.9167 72.5343 23.394C72.7676 22.862 73.0756 22.4047 73.4583 22.022C73.841 21.6393 74.2656 21.3453 74.7323 21.14C75.199 20.9347 75.6656 20.832 76.1323 20.832C76.7016 20.832 77.1543 20.9533 77.4903 21.196C77.8356 21.4387 78.083 21.7607 78.2323 22.162C78.3816 22.5633 78.4563 23.0067 78.4563 23.492C78.4563 23.828 78.4096 24.1593 78.3163 24.486C78.223 24.8033 78.1483 25.0133 78.0923 25.116H74.2843C74.2843 25.6013 74.4243 25.9513 74.7043 26.166C74.9936 26.3807 75.339 26.488 75.7403 26.488C75.9363 26.488 76.1416 26.4413 76.3563 26.348C76.5803 26.2547 76.767 26.152 76.9163 26.04L77.7003 27.44C77.4203 27.636 77.061 27.8087 76.6223 27.958C76.1836 28.098 75.675 28.168 75.0963 28.168ZM74.4523 23.772H76.5803C76.599 23.7253 76.613 23.6647 76.6223 23.59C76.6316 23.5153 76.6363 23.4453 76.6363 23.38C76.6363 23.1373 76.5803 22.9367 76.4683 22.778C76.3563 22.6193 76.151 22.54 75.8523 22.54C75.591 22.54 75.3296 22.638 75.0683 22.834C74.8163 23.0207 74.611 23.3333 74.4523 23.772Z" fill="#5D6B6D"/>
</svg>
